<?xml version="1.0" standalone="no"?>
<!DOCTYPE svg PUBLIC "-//W3C//DTD SVG 20010904//EN"
 "http://www.w3.org/TR/2001/REC-SVG-20010904/DTD/svg10.dtd">
<svg version="1.0" xmlns="http://www.w3.org/2000/svg"
 width="1688.000000pt" height="1690.000000pt" viewBox="0 0 1688.000000 1690.000000"
 preserveAspectRatio="xMidYMid meet">
<metadata>
Created by potrace 1.16, written by Peter Selinger 2001-2019
</metadata>
<g transform="translate(0.000000,1690.000000) scale(0.100000,-0.100000)"
fill="#000000" stroke="none">
<path d="M6105 15489 c-787 -25 -1321 -88 -1721 -204 -214 -61 -484 -170 -726
-291 -747 -374 -1378 -1005 -1752 -1752 -351 -701 -455 -1226 -496 -2492 -13
-397 -13 -4203 0 -4600 41 -1266 145 -1791 496 -2492 374 -747 1005 -1378
1752 -1752 701 -351 1226 -455 2492 -496 397 -13 4183 -13 4580 0 1266 41
1791 145 2492 496 367 183 680 408 987 709 320 313 572 657 765 1043 351 701
455 1226 496 2492 13 397 13 4203 0 4600 -41 1266 -145 1791 -496 2492 -374
747 -1005 1378 -1752 1752 -701 351 -1226 455 -2492 496 -354 11 -4265 11
-4625 -1z m-195 -2347 c48 -9 85 -17 225 -47 29 -6 41 -10 98 -34 50 -20 72
-29 117 -46 52 -19 170 -75 185 -87 17 -14 127 -78 134 -78 4 0 13 -9 21 -20
8 -11 18 -20 23 -20 5 0 14 -6 22 -12 7 -7 26 -22 41 -33 76 -53 324 -299 324
-321 0 -4 8 -14 18 -23 22 -20 112 -157 112 -171 0 -5 5 -10 10 -10 6 0 10 -6
10 -14 0 -7 7 -19 15 -26 8 -7 15 -21 15 -30 0 -10 4 -20 8 -22 9 -3 52 -93
52 -108 0 -5 4 -10 8 -10 4 0 14 -21 21 -47 8 -27 19 -61 26 -78 7 -16 17 -43
24 -58 6 -15 11 -39 11 -52 0 -13 5 -27 10 -30 6 -3 10 -22 10 -41 0 -19 4
-34 9 -34 5 0 11 -24 14 -52 3 -29 10 -84 16 -123 6 -41 10 -296 11 -617 l0
-548 940 0 940 0 0 548 c1 321 5 576 11 617 6 39 13 94 16 123 3 28 9 52 14
52 5 0 9 15 9 34 0 19 4 38 10 41 5 3 10 17 10 30 0 13 5 37 11 52 7 15 17 42
24 58 7 17 18 51 26 78 7 26 17 47 21 47 4 0 8 5 8 10 0 15 43 105 52 108 4 2
8 12 8 22 0 9 7 23 15 30 8 7 15 19 15 26 0 8 5 14 10 14 6 0 10 5 10 10 0 14
90 151 112 171 10 9 18 19 18 23 0 22 248 268 324 321 15 11 34 26 41 33 8 6
17 12 22 12 5 0 15 9 23 20 8 11 17 20 21 20 7 0 117 64 134 78 15 12 133 68
185 87 25 9 55 21 68 26 12 5 33 14 47 19 14 6 35 14 48 19 12 5 36 12 52 16
267 57 285 60 515 60 208 0 276 -7 420 -39 36 -8 79 -18 95 -21 30 -6 64 -19
97 -36 10 -5 27 -9 38 -9 11 0 20 -4 20 -10 0 -5 8 -10 18 -10 10 0 42 -11 70
-25 29 -14 56 -25 62 -25 5 0 10 -4 10 -10 0 -5 9 -10 20 -10 11 0 20 -4 20
-10 0 -5 9 -10 20 -10 11 0 20 -4 20 -10 0 -5 7 -10 15 -10 8 0 15 -4 15 -10
0 -5 6 -10 13 -10 13 0 141 -83 165 -107 7 -7 17 -13 20 -13 4 0 25 -17 47
-37 23 -21 63 -56 90 -78 61 -49 61 -49 110 -110 22 -27 57 -67 78 -90 20 -22
37 -43 37 -47 0 -3 6 -13 13 -20 24 -24 107 -152 107 -165 0 -7 5 -13 10 -13
6 0 10 -7 10 -15 0 -8 5 -15 10 -15 6 0 10 -9 10 -20 0 -11 5 -20 10 -20 6 0
10 -9 10 -20 0 -11 5 -20 10 -20 6 0 10 -5 10 -10 0 -6 11 -33 25 -62 14 -28
25 -60 25 -70 0 -10 5 -18 10 -18 6 0 10 -9 10 -20 0 -11 4 -28 9 -38 17 -33
30 -67 36 -97 3 -16 13 -59 21 -95 32 -144 39 -212 39 -420 0 -230 -3 -248
-60 -515 -6 -29 -10 -41 -34 -97 -20 -51 -29 -73 -46 -118 -19 -52 -75 -170
-87 -185 -14 -17 -78 -127 -78 -134 0 -4 -9 -13 -20 -21 -11 -8 -20 -18 -20
-23 0 -5 -6 -14 -12 -22 -7 -7 -22 -26 -33 -41 -53 -76 -299 -324 -321 -324
-4 0 -14 -8 -23 -18 -20 -22 -157 -112 -171 -112 -5 0 -10 -4 -10 -10 0 -5 -6
-10 -14 -10 -7 0 -19 -7 -26 -15 -7 -8 -21 -15 -30 -15 -10 0 -20 -4 -22 -8
-3 -9 -93 -52 -108 -52 -5 0 -10 -4 -10 -8 0 -4 -21 -14 -47 -21 -27 -8 -61
-19 -78 -26 -16 -7 -43 -17 -58 -24 -15 -6 -39 -11 -52 -11 -13 0 -27 -4 -30
-10 -3 -5 -22 -10 -41 -10 -19 0 -34 -4 -34 -9 0 -5 -24 -11 -52 -14 -29 -3
-84 -10 -123 -16 -41 -6 -296 -10 -617 -11 l-548 0 0 -940 0 -940 548 0 c321
-1 576 -5 617 -11 39 -6 94 -13 123 -16 28 -3 52 -9 52 -14 0 -5 15 -9 34 -9
19 0 38 -4 41 -10 3 -5 17 -10 30 -10 13 0 37 -5 52 -11 15 -7 42 -17 58 -24
17 -7 51 -18 78 -26 26 -7 47 -17 47 -21 0 -4 5 -8 10 -8 15 0 105 -43 108
-52 2 -4 12 -8 22 -8 9 0 23 -7 30 -15 7 -8 19 -15 26 -15 8 0 14 -4 14 -10 0
-5 5 -10 10 -10 13 0 148 -89 176 -115 11 -11 33 -29 49 -40 59 -42 241 -230
290 -299 11 -15 26 -34 33 -41 6 -8 12 -17 12 -22 0 -5 9 -15 20 -23 11 -8 20
-17 20 -21 0 -7 64 -117 78 -134 12 -15 68 -133 87 -185 22 -58 35 -91 46
-112 5 -10 9 -27 9 -38 0 -11 4 -20 9 -20 5 0 11 -17 14 -37 3 -21 13 -69 22
-108 34 -144 40 -205 40 -415 0 -208 -7 -276 -39 -420 -8 -36 -18 -78 -21 -95
-6 -30 -19 -64 -36 -97 -5 -10 -9 -27 -9 -38 0 -11 -4 -20 -10 -20 -5 0 -10
-8 -10 -18 0 -10 -11 -42 -25 -70 -14 -29 -25 -56 -25 -62 0 -5 -4 -10 -10
-10 -5 0 -10 -9 -10 -20 0 -11 -4 -20 -10 -20 -5 0 -10 -9 -10 -20 0 -11 -4
-20 -10 -20 -5 0 -10 -7 -10 -15 0 -8 -4 -15 -10 -15 -5 0 -10 -6 -10 -13 0
-13 -83 -141 -107 -165 -7 -7 -13 -17 -13 -20 0 -4 -17 -25 -37 -47 -21 -23
-56 -63 -78 -90 -49 -61 -49 -61 -110 -110 -27 -22 -67 -57 -90 -77 -22 -21
-43 -38 -47 -38 -3 0 -13 -6 -20 -13 -24 -24 -152 -107 -165 -107 -7 0 -13 -4
-13 -10 0 -5 -7 -10 -15 -10 -8 0 -15 -4 -15 -10 0 -5 -9 -10 -20 -10 -11 0
-20 -4 -20 -10 0 -5 -9 -10 -19 -10 -11 0 -21 -4 -23 -8 -4 -10 -125 -62 -144
-62 -8 0 -14 -4 -14 -10 0 -5 -9 -10 -20 -10 -11 0 -28 -4 -38 -9 -33 -17 -67
-30 -97 -36 -16 -3 -59 -13 -95 -21 -144 -32 -212 -39 -420 -39 -230 0 -248 3
-515 60 -16 4 -40 11 -52 16 -13 5 -35 14 -50 20 -34 14 -54 22 -113 44 -52
19 -170 75 -185 87 -17 14 -127 78 -134 78 -4 0 -13 9 -21 20 -8 11 -18 20
-23 20 -5 0 -14 6 -22 13 -7 6 -26 21 -41 32 -76 53 -324 299 -324 321 0 4 -8
14 -18 23 -22 20 -112 157 -112 171 0 5 -4 10 -10 10 -5 0 -10 6 -10 14 0 7
-7 19 -15 26 -8 7 -15 21 -15 30 0 10 -4 20 -8 22 -9 3 -52 93 -52 108 0 5 -4
10 -8 10 -4 0 -14 21 -21 48 -8 26 -19 61 -26 77 -7 17 -17 43 -24 58 -6 15
-11 39 -11 52 0 13 -4 27 -10 30 -5 3 -10 22 -10 41 0 19 -4 34 -9 34 -5 0
-11 24 -14 53 -3 28 -10 84 -16 122 -6 41 -10 296 -11 618 l0 547 -940 0 -940
0 0 -547 c-1 -322 -5 -577 -11 -618 -6 -38 -13 -94 -16 -122 -3 -29 -9 -53
-14 -53 -5 0 -9 -15 -9 -34 0 -19 -4 -38 -10 -41 -5 -3 -10 -17 -10 -30 0 -13
-5 -37 -11 -52 -7 -15 -17 -41 -24 -58 -7 -16 -18 -51 -26 -78 -7 -26 -17 -47
-21 -47 -4 0 -8 -5 -8 -10 0 -15 -43 -105 -52 -108 -4 -2 -8 -12 -8 -22 0 -9
-7 -23 -15 -30 -8 -7 -15 -19 -15 -26 0 -8 -4 -14 -10 -14 -5 0 -10 -5 -10
-10 0 -14 -90 -151 -112 -171 -10 -9 -18 -19 -18 -23 0 -22 -248 -268 -324
-321 -15 -11 -34 -26 -41 -32 -8 -7 -17 -13 -22 -13 -5 0 -15 -9 -23 -20 -8
-11 -17 -20 -21 -20 -7 0 -117 -64 -134 -78 -15 -12 -133 -68 -185 -87 -45
-17 -67 -26 -117 -46 -57 -24 -69 -28 -98 -34 -267 -57 -285 -60 -515 -60
-208 0 -276 7 -420 39 -36 8 -78 18 -95 21 -30 6 -64 19 -97 36 -10 5 -27 9
-38 9 -11 0 -20 5 -20 10 0 6 -8 10 -18 10 -10 0 -42 11 -70 25 -29 14 -56 25
-62 25 -5 0 -10 5 -10 10 0 6 -9 10 -20 10 -11 0 -20 5 -20 10 0 6 -9 10 -20
10 -11 0 -20 5 -20 10 0 6 -7 10 -15 10 -8 0 -15 5 -15 10 0 6 -6 10 -13 10
-13 0 -141 83 -165 107 -7 7 -17 13 -20 13 -4 0 -25 17 -47 37 -23 21 -63 56
-90 78 -61 49 -61 49 -110 110 -22 27 -57 67 -77 90 -21 22 -38 43 -38 47 0 3
-6 13 -13 20 -24 24 -107 152 -107 165 0 7 -4 13 -10 13 -5 0 -10 7 -10 15 0
8 -4 15 -10 15 -5 0 -10 9 -10 20 0 11 -4 20 -10 20 -5 0 -10 9 -10 20 0 11
-4 20 -10 20 -5 0 -10 5 -10 10 0 6 -11 33 -25 62 -14 28 -25 60 -25 70 0 10
-4 18 -10 18 -5 0 -10 9 -10 20 0 11 -4 28 -9 38 -17 33 -30 67 -36 97 -3 17
-13 59 -21 95 -32 144 -39 212 -39 420 0 230 3 248 60 515 6 29 10 41 34 98
20 50 29 72 46 117 19 52 75 170 87 185 14 17 78 127 78 134 0 4 9 13 20 21
11 8 20 18 20 23 0 5 6 14 13 22 6 7 21 26 32 41 53 76 299 324 321 324 4 0
14 8 23 18 20 22 157 112 171 112 5 0 10 5 10 10 0 6 6 10 14 10 7 0 19 7 26
15 7 8 21 15 30 15 10 0 20 4 22 8 3 9 93 52 108 52 5 0 10 4 10 8 0 4 21 14
48 21 26 8 61 19 77 26 17 7 43 17 58 24 15 6 39 11 52 11 13 0 27 4 30 10 3
6 22 10 41 10 19 0 34 4 34 9 0 5 24 11 53 14 28 3 84 10 122 16 41 6 296 10
618 11 l547 0 0 940 0 940 -547 0 c-322 1 -577 5 -618 11 -38 6 -94 13 -122
16 -29 3 -53 9 -53 14 0 5 -15 9 -34 9 -19 0 -38 5 -41 10 -3 6 -17 10 -30 10
-13 0 -37 5 -52 11 -15 7 -41 17 -58 24 -16 7 -51 18 -77 26 -27 7 -48 17 -48
21 0 4 -5 8 -10 8 -15 0 -105 43 -108 52 -2 4 -12 8 -22 8 -9 0 -23 7 -30 15
-7 8 -19 15 -26 15 -8 0 -14 5 -14 10 0 6 -5 10 -10 10 -14 0 -151 90 -171
112 -9 10 -19 18 -23 18 -22 0 -268 248 -321 324 -11 15 -26 34 -32 41 -7 8
-13 17 -13 22 0 5 -9 15 -20 23 -11 8 -20 17 -20 21 0 7 -64 117 -78 134 -12
15 -68 133 -87 185 -9 25 -22 56 -27 70 -10 24 -23 55 -39 95 -4 11 -10 34
-14 50 -57 267 -60 285 -60 515 0 208 7 276 39 420 8 36 18 79 21 95 6 30 19
64 36 97 5 10 9 27 9 38 0 11 5 20 10 20 6 0 10 8 10 18 0 10 11 42 25 70 14
29 25 56 25 62 0 5 5 10 10 10 6 0 10 9 10 20 0 11 5 20 10 20 6 0 10 9 10 20
0 11 5 20 10 20 6 0 10 7 10 15 0 8 5 15 10 15 6 0 10 6 10 13 0 13 83 141
107 165 7 7 13 17 13 20 0 4 17 25 38 47 20 23 55 63 77 90 49 61 49 61 110
110 27 22 67 57 90 78 22 20 43 37 47 37 3 0 13 6 20 13 24 24 152 107 165
107 7 0 13 5 13 10 0 6 7 10 15 10 8 0 15 5 15 10 0 6 9 10 20 10 11 0 20 5
20 10 0 6 9 10 20 10 11 0 20 5 20 10 0 6 5 10 10 10 6 0 33 11 62 25 28 14
60 25 70 25 10 0 18 5 18 10 0 6 9 10 20 10 11 0 28 4 38 9 33 17 67 30 97 36
17 3 59 13 95 21 36 8 96 19 134 24 38 6 72 12 75 16 9 9 441 -3 501 -14z"/>
<path d="M5495 12204 c-55 -7 -110 -18 -123 -24 -13 -5 -34 -10 -47 -10 -14 0
-25 -4 -25 -10 0 -5 -6 -10 -14 -10 -16 0 -132 -60 -192 -100 -92 -61 -183
-152 -244 -244 -40 -60 -100 -176 -100 -192 0 -8 -4 -14 -10 -14 -5 0 -10 -12
-10 -26 0 -14 -4 -33 -9 -43 -5 -9 -16 -69 -25 -134 -13 -104 -13 -130 0 -234
8 -65 20 -131 25 -148 23 -64 51 -127 60 -135 3 -3 11 -20 19 -39 24 -59 113
-178 174 -230 10 -9 32 -29 49 -44 95 -87 316 -196 399 -197 15 0 30 -4 33
-10 4 -6 198 -10 551 -10 l544 0 0 544 c0 353 -4 547 -10 551 -5 3 -10 18 -10
33 -1 83 -110 304 -197 399 -15 17 -35 39 -44 49 -52 61 -171 150 -230 174
-19 8 -36 16 -39 19 -9 11 -89 45 -140 60 -34 10 -255 42 -275 40 -5 -1 -55
-8 -110 -15z"/>
<path d="M11140 12204 c-91 -12 -152 -26 -195 -43 -40 -16 -80 -36 -85 -42 -3
-3 -20 -11 -39 -19 -59 -24 -178 -113 -230 -174 -9 -10 -29 -32 -44 -49 -87
-95 -196 -316 -197 -399 0 -15 -4 -30 -10 -33 -6 -4 -10 -198 -10 -551 l0
-544 544 0 c353 0 547 4 551 10 3 6 18 10 33 10 83 1 304 110 399 197 17 15
39 35 49 44 61 52 150 171 174 230 8 19 16 36 19 39 9 8 37 71 60 135 5 17 17
83 25 148 13 104 13 130 0 234 -9 65 -20 125 -25 134 -5 10 -9 29 -9 43 0 14
-4 26 -10 26 -5 0 -10 6 -10 14 0 16 -60 132 -100 192 -61 92 -152 183 -244
244 -60 40 -176 100 -192 100 -8 0 -14 5 -14 10 0 6 -12 10 -26 10 -14 0 -33
4 -43 9 -15 9 -248 43 -268 40 -4 -1 -51 -8 -103 -15z"/>
<path d="M7505 9388 c-3 -7 -4 -429 -3 -938 l3 -925 935 0 935 0 0 935 0 935
-933 3 c-741 2 -934 0 -937 -10z"/>
<path d="M5455 6560 c-3 -5 -18 -10 -33 -10 -83 -1 -304 -110 -399 -197 -17
-15 -39 -35 -49 -44 -61 -52 -150 -171 -174 -230 -8 -19 -16 -36 -19 -39 -9
-7 -39 -76 -60 -135 -5 -16 -17 -83 -25 -147 -13 -105 -13 -131 0 -235 9 -65
20 -125 25 -134 5 -10 9 -29 9 -43 0 -14 5 -26 10 -26 6 0 10 -6 10 -14 0 -16
60 -132 100 -192 61 -92 152 -183 244 -244 60 -40 176 -100 192 -100 8 0 14
-4 14 -10 0 -5 12 -10 26 -10 14 0 33 -4 43 -9 9 -5 69 -16 134 -25 104 -13
130 -13 230 0 104 13 153 24 202 43 37 15 80 36 85 42 3 3 20 11 39 19 59 24
178 113 230 174 9 10 29 32 44 49 87 95 196 316 197 399 0 15 5 30 10 33 6 4
10 198 10 551 l0 544 -544 0 c-353 0 -547 -4 -551 -10z"/>
<path d="M10330 6026 c0 -353 4 -547 10 -551 6 -3 10 -18 10 -33 1 -83 110
-304 197 -399 15 -17 35 -39 44 -49 52 -61 171 -150 230 -174 19 -8 36 -16 39
-19 5 -6 38 -22 83 -40 49 -21 97 -31 204 -45 100 -13 126 -13 230 0 65 9 125
20 134 25 10 5 29 9 43 9 14 0 26 5 26 10 0 6 6 10 14 10 16 0 132 60 192 100
92 61 183 152 244 244 40 60 100 176 100 192 0 8 5 14 10 14 6 0 10 12 10 26
0 14 4 33 10 43 5 10 16 70 23 134 13 101 13 133 1 235 -8 64 -19 131 -25 147
-24 66 -51 127 -60 135 -3 3 -11 20 -19 39 -24 59 -113 178 -174 230 -10 9
-32 29 -49 44 -95 87 -316 196 -399 197 -15 0 -30 5 -33 10 -4 6 -198 10 -551
10 l-544 0 0 -544z"/>
</g>
</svg>
